<svg class="railroad-diagram" width="714" height="339" viewBox="0 0 714 339" xmlns="http://www.w3.org/2000/svg" xmlns:xlink="http://www.w3.org/1999/xlink">
<g transform="translate(.5 .5)">
<g>
<path d="M20 62v20m0 -10h42"></path>
<text x="20" y="57" style="text-anchor:start">file</text>
</g>
<g>
<path d="M62 72h0"></path>
<path d="M674 72h0"></path>
<path d="M62 72a10 10 0 0 0 10 -10v-32a10 10 0 0 1 10 -10"></path>
<g>
<path d="M82 20h572"></path>
</g>
<path d="M654 20a10 10 0 0 1 10 10v32a10 10 0 0 0 10 10"></path>
<path d="M62 72h20"></path>
<g>
<path d="M82 72h0"></path>
<path d="M654 72h0"></path>
<path d="M82 72h10"></path>
<g>
<path d="M92 72h0"></path>
<path d="M644 72h0"></path>
<path d="M92 72h20"></path>
<g>
<path d="M112 72h0"></path>
<path d="M624 72h0"></path>
<g class="terminal ">
<path d="M112 72h0"></path>
<path d="M140 72h0"></path>
<rect x="112" y="61" width="28" height="22" rx="10" ry="10"></rect>
<text x="126" y="76">=</text>
</g>
<path d="M140 72h10"></path>
<path d="M150 72h10"></path>
<g>
<path d="M160 72h0"></path>
<path d="M344 72h0"></path>
<rect x="160" y="44" width="184" height="56" rx="10" ry="10" class="group-box"></rect>
<g>
<path d="M160 72h0"></path>
<path d="M344 72h0"></path>
<path d="M160 72a10 10 0 0 0 10 -10v0a10 10 0 0 1 10 -10"></path>
<g>
<path d="M180 52h144"></path>
</g>
<path d="M324 52a10 10 0 0 1 10 10v0a10 10 0 0 0 10 10"></path>
<path d="M160 72h20"></path>
<g>
<path d="M180 72h0"></path>
<path d="M324 72h0"></path>
<path d="M180 72h10"></path>
<g class="non-terminal ">
<path d="M190 72h0"></path>
<path d="M314 72h0"></path>
<rect x="190" y="61" width="124" height="22"></rect>
<a xlink:href="#non-separator"><text x="252" y="76">non-separator</text>
</a>
</g>
<path d="M314 72h10"></path>
<path d="M190 72a10 10 0 0 0 -10 10v0a10 10 0 0 0 10 10"></path>
<g>
<path d="M190 92h124"></path>
</g>
<path d="M314 92a10 10 0 0 0 10 -10v0a10 10 0 0 0 -10 -10"></path>
</g>
<path d="M324 72h20"></path>
</g>
<g class="comment ">
<path d="M160 36h0"></path>
<path d="M240 36h0"></path>
<text x="200" y="41" class="comment">identifier</text>
</g>
</g>
<path d="M344 72h10"></path>
<path d="M354 72h10"></path>
<g class="non-terminal ">
<path d="M364 72h0"></path>
<path d="M456 72h0"></path>
<rect x="364" y="61" width="92" height="22"></rect>
<a xlink:href="#separator"><text x="410" y="76">separator</text>
</a>
</g>
<path d="M456 72h10"></path>
<path d="M466 72h10"></path>
<g>
<path d="M476 72h0"></path>
<path d="M624 72h0"></path>
<rect x="476" y="53" width="148" height="62" rx="10" ry="10" class="group-box"></rect>
<g>
<path d="M476 72h10"></path>
<path d="M614 72h10"></path>
<path d="M486 72h10"></path>
<g class="non-terminal ">
<path d="M496 72h0"></path>
<path d="M604 72h0"></path>
<rect x="496" y="61" width="108" height="22"></rect>
<a xlink:href="#hexadecimal"><text x="550" y="76">hexadecimal</text>
</a>
</g>
<path d="M604 72h10"></path>
<path d="M496 72a10 10 0 0 0 -10 10v7a10 10 0 0 0 10 10"></path>
<g class="comment ">
<path d="M496 99h0"></path>
<path d="M604 99h0"></path>
<text x="550" y="104" class="comment">up to 8 digits</text>
</g>
<path d="M604 99a10 10 0 0 0 10 -10v-7a10 10 0 0 0 -10 -10"></path>
</g>
<g class="comment ">
<path d="M476 45h0"></path>
<path d="M521 45h0"></path>
<text x="498.5" y="50" class="comment">value</text>
</g>
</g>
</g>
<path d="M624 72h20"></path>
<path d="M92 72a10 10 0 0 1 10 10v75a10 10 0 0 0 10 10"></path>
<g>
<path d="M112 167h84"></path>
<path d="M540 167h84"></path>
<g class="terminal ">
<path d="M196 167h0"></path>
<path d="M224 167h0"></path>
<rect x="196" y="156" width="28" height="22" rx="10" ry="10"></rect>
<text x="210" y="171">$</text>
</g>
<path d="M224 167h10"></path>
<path d="M234 167h10"></path>
<g>
<path d="M244 167h0"></path>
<path d="M428 167h0"></path>
<rect x="244" y="139" width="184" height="56" rx="10" ry="10" class="group-box"></rect>
<g>
<path d="M244 167h0"></path>
<path d="M428 167h0"></path>
<path d="M244 167a10 10 0 0 0 10 -10v0a10 10 0 0 1 10 -10"></path>
<g>
<path d="M264 147h144"></path>
</g>
<path d="M408 147a10 10 0 0 1 10 10v0a10 10 0 0 0 10 10"></path>
<path d="M244 167h20"></path>
<g>
<path d="M264 167h0"></path>
<path d="M408 167h0"></path>
<path d="M264 167h10"></path>
<g class="non-terminal ">
<path d="M274 167h0"></path>
<path d="M398 167h0"></path>
<rect x="274" y="156" width="124" height="22"></rect>
<a xlink:href="#non-separator"><text x="336" y="171">non-separator</text>
</a>
</g>
<path d="M398 167h10"></path>
<path d="M274 167a10 10 0 0 0 -10 10v0a10 10 0 0 0 10 10"></path>
<g>
<path d="M274 187h124"></path>
</g>
<path d="M398 187a10 10 0 0 0 10 -10v0a10 10 0 0 0 -10 -10"></path>
</g>
<path d="M408 167h20"></path>
</g>
<g class="comment ">
<path d="M244 131h0"></path>
<path d="M324 131h0"></path>
<text x="284" y="136" class="comment">identifier</text>
</g>
</g>
<path d="M428 167h10"></path>
<path d="M438 167h10"></path>
<g class="non-terminal ">
<path d="M448 167h0"></path>
<path d="M540 167h0"></path>
<rect x="448" y="156" width="92" height="22"></rect>
<a xlink:href="#separator"><text x="494" y="171">separator</text>
</a>
</g>
</g>
<path d="M624 167a10 10 0 0 0 10 -10v-75a10 10 0 0 1 10 -10"></path>
<path d="M92 72a10 10 0 0 1 10 10v146a10 10 0 0 0 10 10"></path>
<g>
<path d="M112 238h98.5"></path>
<path d="M525.5 238h98.5"></path>
<g class="terminal ">
<path d="M210.5 238h0"></path>
<path d="M238.5 238h0"></path>
<rect x="210.5" y="227" width="28" height="22" rx="10" ry="10"></rect>
<text x="224.5" y="242">%</text>
</g>
<path d="M238.5 238h10"></path>
<path d="M248.5 238h10"></path>
<g>
<path d="M258.5 238h0"></path>
<path d="M413.5 238h0"></path>
<rect x="258.5" y="219" width="155" height="62" rx="10" ry="10" class="group-box"></rect>
<g>
<path d="M258.5 238h10"></path>
<path d="M403.5 238h10"></path>
<path d="M268.5 238h10"></path>
<g class="non-terminal ">
<path d="M278.5 238h3.5"></path>
<path d="M390 238h3.5"></path>
<rect x="282" y="227" width="108" height="22"></rect>
<a xlink:href="#hexadecimal"><text x="336" y="242">hexadecimal</text>
</a>
</g>
<path d="M393.5 238h10"></path>
<path d="M278.5 238a10 10 0 0 0 -10 10v7a10 10 0 0 0 10 10"></path>
<g class="comment ">
<path d="M278.5 265h0"></path>
<path d="M393.5 265h0"></path>
<text x="336" y="270" class="comment">up to 16 digits</text>
</g>
<path d="M393.5 265a10 10 0 0 0 10 -10v-7a10 10 0 0 0 -10 -10"></path>
</g>
<g class="comment ">
<path d="M258.5 211h0"></path>
<path d="M303.5 211h0"></path>
<text x="281" y="216" class="comment">value</text>
</g>
</g>
<path d="M413.5 238h10"></path>
<path d="M423.5 238h10"></path>
<g class="non-terminal ">
<path d="M433.5 238h0"></path>
<path d="M525.5 238h0"></path>
<rect x="433.5" y="227" width="92" height="22"></rect>
<a xlink:href="#separator"><text x="479.5" y="242">separator</text>
</a>
</g>
</g>
<path d="M624 238a10 10 0 0 0 10 -10v-146a10 10 0 0 1 10 -10"></path>
<path d="M92 72a10 10 0 0 1 10 10v208a10 10 0 0 0 10 10"></path>
<g>
<path d="M112 300h186.5"></path>
<path d="M437.5 300h186.5"></path>
<g class="non-terminal ">
<path d="M298.5 300h0"></path>
<path d="M358.5 300h0"></path>
<rect x="298.5" y="289" width="60" height="22"></rect>
<text x="328.5" y="304">other</text>
</g>
<path d="M358.5 300h10"></path>
<path d="M368.5 300h10"></path>
<g class="comment ">
<path d="M378.5 300h0"></path>
<path d="M437.5 300h0"></path>
<text x="408" y="305" class="comment">ignored</text>
</g>
</g>
<path d="M624 300a10 10 0 0 0 10 -10v-208a10 10 0 0 1 10 -10"></path>
</g>
<path d="M644 72h10"></path>
<path d="M92 72a10 10 0 0 0 -10 10v227a10 10 0 0 0 10 10"></path>
<g>
<path d="M92 319h552"></path>
</g>
<path d="M644 319a10 10 0 0 0 10 -10v-227a10 10 0 0 0 -10 -10"></path>
</g>
<path d="M654 72h20"></path>
</g>
<path d="M 674 72 h 20 m 0 -10 v 20"></path>
</g>
<style>
	svg {
		background-color: hsl(30,20%,95%);
	}
	path {
		stroke-width: 3;
		stroke: black;
		fill: rgba(0,0,0,0);
	}
	text {
		font: bold 14px monospace;
		text-anchor: middle;
		white-space: pre;
	}
	text.diagram-text {
		font-size: 12px;
	}
	text.diagram-arrow {
		font-size: 16px;
	}
	text.label {
		text-anchor: start;
	}
	text.comment {
		font: italic 12px monospace;
	}
	g.non-terminal text {
		/&#42;font-style: italic;&#42;/
	}
	rect {
		stroke-width: 3;
		stroke: black;
		fill: hsl(120,100%,90%);
	}
	rect.group-box {
		stroke: gray;
		stroke-dasharray: 10 5;
		fill: none;
	}
	path.diagram-text {
		stroke-width: 3;
		stroke: black;
		fill: white;
		cursor: help;
	}
	g.diagram-text:hover path.diagram-text {
		fill: #eee;
	}</style>
</svg>
