<svg class="railroad-diagram" width="510" height="168" viewBox="0 0 510 168" xmlns="http://www.w3.org/2000/svg" xmlns:xlink="http://www.w3.org/1999/xlink">
<g transform="translate(.5 .5)">
<g>
<path d="M20 59v20m10 -20v20m-10 -10h98"></path>
<text x="20" y="54" style="text-anchor:start">hexadecimal</text>
</g>
<g>
<path d="M118 69h0"></path>
<path d="M470 69h0"></path>
<path d="M118 69a10 10 0 0 0 10 -10v-29a10 10 0 0 1 10 -10h234"></path>
<path d="M216 148h234a10 10 0 0 0 10 -10v-59a10 10 0 0 1 10 -10"></path>
<path d="M118 69h10"></path>
<g>
<path d="M128 69h0"></path>
<path d="M196 69h0"></path>
<path d="M128 69a10 10 0 0 0 10 -10v-10a10 10 0 0 1 10 -10"></path>
<g class="terminal ">
<path d="M148 39h0"></path>
<path d="M176 39h0"></path>
<rect x="148" y="28" width="28" height="22" rx="10" ry="10"></rect>
<text x="162" y="43">0</text>
</g>
<path d="M176 39a10 10 0 0 1 10 10v10a10 10 0 0 0 10 10"></path>
<path d="M128 69h20"></path>
<g class="terminal ">
<path d="M148 69h0"></path>
<path d="M176 69h0"></path>
<rect x="148" y="58" width="28" height="22" rx="10" ry="10"></rect>
<text x="162" y="73">1</text>
</g>
<path d="M176 69h20"></path>
<path d="M128 69a10 10 0 0 1 10 10v10a10 10 0 0 0 10 10"></path>
<g class="terminal ">
<path d="M148 99h0"></path>
<path d="M176 99h0"></path>
<rect x="148" y="88" width="28" height="22" rx="10" ry="10"></rect>
<text x="162" y="103">2</text>
</g>
<path d="M176 99a10 10 0 0 0 10 -10v-10a10 10 0 0 1 10 -10"></path>
<path d="M128 69a10 10 0 0 1 10 10v40a10 10 0 0 0 10 10"></path>
<g class="terminal ">
<path d="M148 129h0"></path>
<path d="M176 129h0"></path>
<rect x="148" y="118" width="28" height="22" rx="10" ry="10"></rect>
<text x="162" y="133">3</text>
</g>
<path d="M176 129a10 10 0 0 0 10 -10v-40a10 10 0 0 1 10 -10"></path>
</g>
<path d="M196 69a10 10 0 0 1 10 10v59a10 10 0 0 0 10 10"></path>
<path d="M196 20a10 10 0 0 1 10 10v29a10 10 0 0 0 10 10"></path>
<g>
<path d="M216 69h0"></path>
<path d="M284 69h0"></path>
<path d="M216 69a10 10 0 0 0 10 -10v-10a10 10 0 0 1 10 -10"></path>
<g class="terminal ">
<path d="M236 39h0"></path>
<path d="M264 39h0"></path>
<rect x="236" y="28" width="28" height="22" rx="10" ry="10"></rect>
<text x="250" y="43">4</text>
</g>
<path d="M264 39a10 10 0 0 1 10 10v10a10 10 0 0 0 10 10"></path>
<path d="M216 69h20"></path>
<g class="terminal ">
<path d="M236 69h0"></path>
<path d="M264 69h0"></path>
<rect x="236" y="58" width="28" height="22" rx="10" ry="10"></rect>
<text x="250" y="73">5</text>
</g>
<path d="M264 69h20"></path>
<path d="M216 69a10 10 0 0 1 10 10v10a10 10 0 0 0 10 10"></path>
<g class="terminal ">
<path d="M236 99h0"></path>
<path d="M264 99h0"></path>
<rect x="236" y="88" width="28" height="22" rx="10" ry="10"></rect>
<text x="250" y="103">6</text>
</g>
<path d="M264 99a10 10 0 0 0 10 -10v-10a10 10 0 0 1 10 -10"></path>
<path d="M216 69a10 10 0 0 1 10 10v40a10 10 0 0 0 10 10"></path>
<g class="terminal ">
<path d="M236 129h0"></path>
<path d="M264 129h0"></path>
<rect x="236" y="118" width="28" height="22" rx="10" ry="10"></rect>
<text x="250" y="133">7</text>
</g>
<path d="M264 129a10 10 0 0 0 10 -10v-40a10 10 0 0 1 10 -10"></path>
</g>
<path d="M284 69a10 10 0 0 1 10 10v59a10 10 0 0 0 10 10"></path>
<path d="M284 20a10 10 0 0 1 10 10v29a10 10 0 0 0 10 10"></path>
<g>
<path d="M304 69h0"></path>
<path d="M372 69h0"></path>
<path d="M304 69a10 10 0 0 0 10 -10v-10a10 10 0 0 1 10 -10"></path>
<g class="terminal ">
<path d="M324 39h0"></path>
<path d="M352 39h0"></path>
<rect x="324" y="28" width="28" height="22" rx="10" ry="10"></rect>
<text x="338" y="43">8</text>
</g>
<path d="M352 39a10 10 0 0 1 10 10v10a10 10 0 0 0 10 10"></path>
<path d="M304 69h20"></path>
<g class="terminal ">
<path d="M324 69h0"></path>
<path d="M352 69h0"></path>
<rect x="324" y="58" width="28" height="22" rx="10" ry="10"></rect>
<text x="338" y="73">9</text>
</g>
<path d="M352 69h20"></path>
<path d="M304 69a10 10 0 0 1 10 10v10a10 10 0 0 0 10 10"></path>
<g class="terminal ">
<path d="M324 99h0"></path>
<path d="M352 99h0"></path>
<rect x="324" y="88" width="28" height="22" rx="10" ry="10"></rect>
<text x="338" y="103">A</text>
</g>
<path d="M352 99a10 10 0 0 0 10 -10v-10a10 10 0 0 1 10 -10"></path>
<path d="M304 69a10 10 0 0 1 10 10v40a10 10 0 0 0 10 10"></path>
<g class="terminal ">
<path d="M324 129h0"></path>
<path d="M352 129h0"></path>
<rect x="324" y="118" width="28" height="22" rx="10" ry="10"></rect>
<text x="338" y="133">B</text>
</g>
<path d="M352 129a10 10 0 0 0 10 -10v-40a10 10 0 0 1 10 -10"></path>
</g>
<path d="M372 69a10 10 0 0 1 10 10v59a10 10 0 0 0 10 10"></path>
<path d="M372 20a10 10 0 0 1 10 10v29a10 10 0 0 0 10 10"></path>
<g>
<path d="M392 69h0"></path>
<path d="M460 69h0"></path>
<path d="M392 69a10 10 0 0 0 10 -10v-10a10 10 0 0 1 10 -10"></path>
<g class="terminal ">
<path d="M412 39h0"></path>
<path d="M440 39h0"></path>
<rect x="412" y="28" width="28" height="22" rx="10" ry="10"></rect>
<text x="426" y="43">C</text>
</g>
<path d="M440 39a10 10 0 0 1 10 10v10a10 10 0 0 0 10 10"></path>
<path d="M392 69h20"></path>
<g class="terminal ">
<path d="M412 69h0"></path>
<path d="M440 69h0"></path>
<rect x="412" y="58" width="28" height="22" rx="10" ry="10"></rect>
<text x="426" y="73">D</text>
</g>
<path d="M440 69h20"></path>
<path d="M392 69a10 10 0 0 1 10 10v10a10 10 0 0 0 10 10"></path>
<g class="terminal ">
<path d="M412 99h0"></path>
<path d="M440 99h0"></path>
<rect x="412" y="88" width="28" height="22" rx="10" ry="10"></rect>
<text x="426" y="103">E</text>
</g>
<path d="M440 99a10 10 0 0 0 10 -10v-10a10 10 0 0 1 10 -10"></path>
<path d="M392 69a10 10 0 0 1 10 10v40a10 10 0 0 0 10 10"></path>
<g class="terminal ">
<path d="M412 129h0"></path>
<path d="M440 129h0"></path>
<rect x="412" y="118" width="28" height="22" rx="10" ry="10"></rect>
<text x="426" y="133">F</text>
</g>
<path d="M440 129a10 10 0 0 0 10 -10v-40a10 10 0 0 1 10 -10"></path>
</g>
<path d="M460 69h10"></path>
</g>
<path d="M 470 69 h 20 m -10 -10 v 20 m 10 -20 v 20"></path>
</g>
<style>
	svg {
		background-color: hsl(30,20%,95%);
	}
	path {
		stroke-width: 3;
		stroke: black;
		fill: rgba(0,0,0,0);
	}
	text {
		font: bold 14px monospace;
		text-anchor: middle;
		white-space: pre;
	}
	text.diagram-text {
		font-size: 12px;
	}
	text.diagram-arrow {
		font-size: 16px;
	}
	text.label {
		text-anchor: start;
	}
	text.comment {
		font: italic 12px monospace;
	}
	g.non-terminal text {
		/&#42;font-style: italic;&#42;/
	}
	rect {
		stroke-width: 3;
		stroke: black;
		fill: hsl(120,100%,90%);
	}
	rect.group-box {
		stroke: gray;
		stroke-dasharray: 10 5;
		fill: none;
	}
	path.diagram-text {
		stroke-width: 3;
		stroke: black;
		fill: white;
		cursor: help;
	}
	g.diagram-text:hover path.diagram-text {
		fill: #eee;
	}</style>
</svg>
